<svg width="120" height="70" viewBox="0 0 120 44" fill="none" xmlns="http://www.w3.org/2000/svg">
<g clip-path="url(#clip0_1526_4129)">
<path d="M18.7987 0.128387L0 10.9353V32.5491L18.7987 43.3559L37.5957 32.5491V10.9353L18.7987 0.128387ZM2.09983 15.4672V12.1554L4.98885 10.4943L17.7506 3.15606V9.5879L10.5866 13.7015L17.7488 17.8203V21.1408L14.8616 22.8002L7.70113 18.6831V26.919L2.10158 30.1402L2.09983 15.4672ZM21.686 39.2946L18.7987 40.9558L15.9115 39.2946L3.14974 31.9547L8.74929 28.7353L15.9115 32.8541V24.6182L18.7987 22.9588L21.686 24.6199V32.8558L28.8464 28.737L34.4459 31.9564L21.686 39.2946ZM35.4959 30.1454L29.8963 26.9242V18.6883L22.7342 22.8072L19.8486 21.146V17.8238L27.009 13.7015L19.8486 9.58267V3.14909L32.6103 10.4856L35.4976 12.1467L35.4959 30.1454Z" fill="white"/>
<path d="M50.6164 29.0874C49.2165 29.0874 48.0319 28.7841 47.0624 28.1775C46.1077 27.5805 45.3803 26.683 44.9958 25.6274L47.7659 24.0273C48.327 25.3206 49.3104 25.9673 50.7161 25.9673C51.9889 25.9673 52.6247 25.5873 52.6235 24.8273C52.6271 24.624 52.57 24.4241 52.4594 24.2531C52.3488 24.0821 52.1897 23.9477 52.0023 23.8669C51.5742 23.6136 50.8112 23.3405 49.7135 23.0477C48.6891 22.7884 47.7224 22.3409 46.8629 21.7282C46.0055 21.031 45.5768 20.0508 45.5768 18.7877C45.5768 17.4944 46.0388 16.4613 46.9627 15.6886C47.8953 14.9169 49.0753 14.5049 50.2874 14.5277C51.361 14.5066 52.4187 14.7875 53.3392 15.3382C54.2474 15.9056 54.9727 16.7212 55.4285 17.6878L52.718 19.2688C52.2093 18.1881 51.3992 17.6477 50.2874 17.6477C49.8965 17.6264 49.5092 17.7316 49.1833 17.9475C49.0591 18.0318 48.9576 18.1452 48.8877 18.2777C48.8178 18.4102 48.7817 18.5578 48.7825 18.7075C48.7887 18.8843 48.8352 19.0573 48.9186 19.2135C49.0019 19.3697 49.12 19.5048 49.2638 19.6087C49.6137 19.8759 50.2968 20.1554 51.3128 20.4471L52.6165 20.8671C53.0222 21.0077 53.4127 21.1887 53.7819 21.4075C54.191 21.5943 54.559 21.8597 54.8651 22.1884C55.5136 22.8967 55.8595 23.829 55.8292 24.7873C55.8292 26.1073 55.3474 27.1607 54.3838 27.9474C53.4249 28.7074 52.1691 29.0874 50.6164 29.0874Z" fill="white"/>
<path d="M62.722 18.528C63.2199 18.5125 63.7154 18.6025 64.1758 18.7921C64.6361 18.9818 65.0508 19.2666 65.3923 19.6278C66.1144 20.3762 66.476 21.3895 66.4772 22.6677V28.8067H63.4587V23.1139C63.4587 22.5422 63.2977 22.0943 62.9757 21.7753C62.8093 21.6135 62.6113 21.4873 62.394 21.4045C62.1767 21.3218 61.9447 21.2843 61.7123 21.2942C61.4589 21.2788 61.2051 21.3175 60.9679 21.4077C60.7307 21.4978 60.5156 21.6374 60.3369 21.8171C60.008 22.1657 59.8452 22.6886 59.8452 23.3475V28.8067H56.8337V14.8083H59.8452V19.7481C60.4519 18.9335 61.4108 18.5268 62.722 18.528Z" fill="white"/>
<path d="M76.635 27.5674C76.1434 28.0641 75.5549 28.4552 74.9057 28.7166C74.2566 28.978 73.5605 29.1042 72.8605 29.0874C72.1606 29.1042 71.4645 28.978 70.8154 28.7166C70.1662 28.4552 69.5777 28.0641 69.0861 27.5674C68.5848 27.0795 68.1891 26.4946 67.9234 25.8485C67.6576 25.2025 67.5275 24.5092 67.541 23.8112C67.5286 23.1156 67.6593 22.425 67.9251 21.7817C68.1908 21.1383 68.5859 20.556 69.0861 20.0706C69.5766 19.5711 70.1644 19.1769 70.8136 18.9123C71.4627 18.6476 72.1593 18.518 72.8605 18.5315C73.5618 18.518 74.2584 18.6476 74.9075 18.9123C75.5567 19.1769 76.1445 19.5711 76.635 20.0706C77.1352 20.556 77.5303 21.1383 77.796 21.7817C78.0618 22.425 78.1925 23.1156 78.1801 23.8112C78.1936 24.5092 78.0635 25.2025 77.7977 25.8485C77.532 26.4946 77.1363 27.0795 76.635 27.5674ZM70.5525 23.8112C70.5407 24.1244 70.5933 24.4367 70.7071 24.7289C70.8208 25.0212 70.9933 25.2872 71.2139 25.5106C71.4285 25.727 71.6853 25.8973 71.9685 26.0109C72.2517 26.1246 72.5553 26.1791 72.8605 26.1712C73.1658 26.1791 73.4694 26.1246 73.7526 26.0109C74.0358 25.8973 74.2926 25.727 74.5072 25.5106C74.7281 25.2873 74.9009 25.0214 75.015 24.7291C75.129 24.4369 75.1819 24.1245 75.1704 23.8112C75.1819 23.4978 75.129 23.1854 75.015 22.8932C74.9009 22.6009 74.7281 22.335 74.5072 22.1117C74.2926 21.8953 74.0358 21.725 73.7526 21.6114C73.4694 21.4978 73.1658 21.4432 72.8605 21.4511C72.5553 21.4432 72.2517 21.4978 71.9685 21.6114C71.6853 21.725 71.4285 21.8953 71.2139 22.1117C70.9933 22.3352 70.8208 22.6012 70.7071 22.8934C70.5933 23.1856 70.5407 23.4979 70.5525 23.8112Z" fill="white"/>
<path d="M85.3878 18.528C86.7002 18.528 87.8312 19.041 88.7808 20.0671C89.7304 21.0932 90.197 22.34 90.1807 23.8077C90.1807 25.3021 89.7141 26.5553 88.7808 27.5674C88.3589 28.0496 87.8371 28.4352 87.2514 28.6975C86.6658 28.9599 86.03 29.0929 85.3878 29.0874C84.0894 29.0874 83.0926 28.6807 82.3973 27.8672V32.807H79.3823V18.8086H82.3938V19.7481C83.0914 18.9335 84.0894 18.5268 85.3878 18.528ZM83.057 25.5873C83.2859 25.807 83.5567 25.9786 83.8533 26.0921C84.15 26.2055 84.4665 26.2586 84.7841 26.2479C85.0987 26.2599 85.4125 26.2074 85.7059 26.0938C85.9994 25.9801 86.2663 25.8078 86.4902 25.5873C86.9452 25.1481 87.1727 24.5549 87.1727 23.8077C87.1727 23.0605 86.9452 22.4673 86.4902 22.028C86.2663 21.8076 85.9994 21.6352 85.7059 21.5216C85.4125 21.408 85.0987 21.3555 84.7841 21.3674C84.4665 21.3568 84.15 21.4098 83.8533 21.5233C83.5567 21.6368 83.2859 21.8084 83.057 22.028C82.6161 22.4673 82.3956 23.0605 82.3956 23.8077C82.3956 24.5549 82.6161 25.1481 83.057 25.5873Z" fill="white"/>
<path d="M108.456 28.8067H104.943L104.243 26.607H99.0227L98.3228 28.8067H94.8091L99.5879 14.8083H103.683L108.456 28.8067ZM101.632 18.4687L99.9852 23.6072H103.278L101.632 18.4687Z" fill="white"/>
<path d="M120 28.8067H116.546L113.897 24.2068H112.371V28.8067H109.158V14.8083H114.78C115.414 14.7966 116.044 14.9143 116.631 15.1541C117.218 15.3939 117.749 15.7508 118.192 16.2028C118.646 16.6446 119.005 17.1741 119.245 17.759C119.486 18.3438 119.604 18.9715 119.592 19.6034C119.592 20.4421 119.345 21.2623 118.88 21.9618C118.418 22.6862 117.77 23.2752 117.004 23.6682L120 28.8067ZM114.78 17.8081H112.371V21.4075H114.78C114.996 21.4083 115.21 21.3619 115.406 21.2715C115.601 21.1812 115.775 21.0491 115.914 20.8846C116.23 20.5342 116.4 20.0762 116.387 19.6052C116.4 19.1336 116.231 18.675 115.914 18.324C115.774 18.1612 115.6 18.0306 115.404 17.9415C115.208 17.8524 114.996 17.8069 114.78 17.8081Z" fill="white"/>
</g>
<defs>
<clipPath id="clip0_1526_4129">
<rect width="120" height="43.2432" fill="white" transform="translate(0 0.128387)"/>
</clipPath>
</defs>
</svg>
